<svg width="43" height="71" viewBox="0 0 43 71" fill="none" xmlns="http://www.w3.org/2000/svg">
<path d="M14.2656 49.0469C14.2656 44.6719 14.7969 41.1875 15.8594 38.5938C16.9219 36 18.8594 33.4531 21.6719 30.9531C24.5156 28.4219 26.4062 26.375 27.3438 24.8125C28.2812 23.2188 28.75 21.5469 28.75 19.7969C28.75 14.5156 26.3125 11.875 21.4375 11.875C19.125 11.875 17.2656 12.5937 15.8594 14.0312C14.4844 15.4375 13.7656 17.3906 13.7031 19.8906H0.109375C0.171875 13.9219 2.09375 9.25 5.875 5.875C9.6875 2.5 14.875 0.8125 21.4375 0.8125C28.0625 0.8125 33.2031 2.42187 36.8594 5.64062C40.5156 8.82812 42.3438 13.3437 42.3438 19.1875C42.3438 21.8438 41.75 24.3594 40.5625 26.7344C39.375 29.0781 37.2969 31.6875 34.3281 34.5625L30.5312 38.1719C28.1562 40.4531 26.7969 43.125 26.4531 46.1875L26.2656 49.0469H14.2656ZM12.9062 63.4375C12.9062 61.3438 13.6094 59.625 15.0156 58.2812C16.4531 56.9062 18.2812 56.2188 20.5 56.2188C22.7188 56.2188 24.5312 56.9062 25.9375 58.2812C27.375 59.625 28.0938 61.3438 28.0938 63.4375C28.0938 65.5 27.3906 67.2031 25.9844 68.5469C24.6094 69.8906 22.7812 70.5625 20.5 70.5625C18.2188 70.5625 16.375 69.8906 14.9688 68.5469C13.5938 67.2031 12.9062 65.5 12.9062 63.4375Z" fill="black"/>
</svg>
