<svg width="72" height="69" viewBox="0 0 72 69" fill="none" xmlns="http://www.w3.org/2000/svg">
<path d="M1 44.5924C1 44.5924 12.5662 39.642 16.1625 38.2922C17.8575 37.6561 20.3664 37.4486 21.9427 36.5582C23.7776 35.5218 26.086 33.6599 27.1448 31.8377C27.6087 31.0394 29.0945 23.9932 29.9385 20.7591C30.0943 20.1623 31.5774 16.5974 32.7323 14.7863C34.2408 12.4206 37.3166 9.42482 38.9941 7.17578C39.5454 6.43663 39.9798 5.22674 40.6318 4.57471C41.9359 3.27065 44.0985 1.92321 45.834 1.29929C46.684 0.993677 47.5997 0.858915 48.435 1.20296C48.7397 1.32845 49.1685 1.82744 49.4947 1.78097C51.7858 1.45462 56.3265 1.10404 58.8393 2.35899C59.9947 2.93604 61.0986 4.45865 61.633 5.6344C62.102 6.66615 61.4296 7.97622 61.2844 8.71868C62.3035 9.21873 66.0803 14.144 66.7388 16.0387C66.9952 16.7762 66.7043 17.2581 66.9315 18.0051C67.535 18.7661 68.5112 20.367 68.9545 21.4335C69.4793 22.6957 69.7598 24.5219 70.0142 25.8649C70.3619 27.7001 71.3361 30.2188 70.8813 32.0304C70.5237 33.4545 68.7164 34.2266 68.1839 35.5948C68.0889 35.8387 67.884 36.659 67.7022 36.8472C64.9568 39.69 60.7388 41.9194 56.3346 46.0955C54.1983 48.121 52.1165 50.4592 49.591 51.9719C48.415 52.6764 46.1184 53.7162 44.8706 54.284C42.6419 55.2981 40.6101 57.0979 38.1271 58.1374C36.6086 58.7731 32.4293 60.2598 30.2275 61.3165C26.0614 63.316 20.3352 67.2893 17.6076 68.4454L1 44.5924Z" fill="white" stroke="black" stroke-width="0.999998" stroke-linecap="round" stroke-linejoin="round"/>
<path d="M61.3993 8.79724C60.766 8.45318 59.6899 8.10913 58.7616 7.76508L61.3993 8.79724Z" fill="white" fill-opacity="0.0961538"/>
<path d="M61.3993 8.79724C60.766 8.45318 59.6899 8.10913 58.7616 7.76508" stroke="black" stroke-width="0.999998" stroke-linecap="round" stroke-linejoin="round"/>
<path d="M51.6129 6.46532C52.2943 6.72085 55.3046 5.70378 57.0413 6.27418C58.7664 6.84075 59.433 9.41605 60.4436 10.0588" fill="white" fill-opacity="0.0961538"/>
<path d="M51.6129 6.46532C52.2943 6.72085 55.3046 5.70378 57.0413 6.27418C58.7664 6.84075 59.433 9.41605 60.4436 10.0588" stroke="black" stroke-width="0.999998" stroke-linecap="round" stroke-linejoin="round"/>
<path d="M58.8762 12.6965C59.8632 13.3874 62.3144 13.1549 63.4254 13.9198C64.5363 14.6847 64.9081 16.8075 65.872 18.0102" fill="white" fill-opacity="0.0961538"/>
<path d="M58.8762 12.6965C59.8632 13.3874 62.3144 13.1549 63.4254 13.9198C64.5363 14.6847 64.9081 16.8075 65.872 18.0102" stroke="black" stroke-width="0.999998" stroke-linecap="round" stroke-linejoin="round"/>
<path d="M67.057 18.1631C66.2067 17.1142 65.6144 16.7101 64.9545 16.137L67.057 18.1631Z" fill="white" fill-opacity="0.0961538"/>
<path d="M67.057 18.1631C66.2067 17.1142 65.6144 16.7101 64.9545 16.137" stroke="black" stroke-width="0.999998" stroke-linecap="round" stroke-linejoin="round"/>
<path d="M68.5479 22.4447C68.4021 22.7364 69.5731 24.1551 69.8095 24.9295C70.0458 25.7039 69.7312 27.1761 69.8095 27.5672" fill="white" fill-opacity="0.0961538"/>
<path d="M68.5479 22.4447C68.4021 22.7364 69.5731 24.1551 69.8095 24.9295C70.0458 25.7039 69.7312 27.1761 69.8095 27.5672" stroke="black" stroke-width="0.999998" stroke-linecap="round" stroke-linejoin="round"/>
</svg>
