<svg width="72" height="73" viewBox="0 0 72 73" fill="none" xmlns="http://www.w3.org/2000/svg">
<path d="M1.0006 50.4688C0.907731 50.4466 11.6581 45.5428 16.3636 42.9599C16.8295 42.7042 16.5342 40.4072 16.9677 39.4213C17.4947 38.2227 21.1272 27.361 21.4558 26.3887C21.5442 26.127 23.9157 23.7518 25.9198 21.1519C27.9417 18.5289 29.2073 16.2086 30.2593 15.7727C31.2922 15.3447 32.2888 15.3266 34.0396 14.8464C35.5379 14.4354 36.7224 13.7608 37.2503 13.5287C38.1939 13.1137 39.5221 12.651 40.4437 13.0108C41.2949 13.3431 40.9642 14.0701 41.1342 14.9096C42.0317 13.9536 43.395 13.0435 44.5152 12.0789C45.6206 11.1271 46.4824 10.1199 47.4347 9.29953C48.3211 8.53589 49.6074 7.70384 50.6464 6.81795C51.5829 6.01954 52.27 5.16119 53.1311 4.55255C54.7049 3.44019 57.2982 1.54801 59.1727 1.1002C60.5676 0.766958 61.7457 1.23856 62.4524 2.91268C62.6787 3.44874 62.2209 4.51866 61.9346 5.0704C64.4566 3.36852 64.7124 2.45318 65.9911 2.0496C68.4291 1.28009 69.5865 2.53256 69.7887 4.46624C69.9489 5.99879 68.3547 7.57196 67.0268 8.86799C69.2142 7.3217 70.886 9.65252 70.997 11.4573C71.0471 12.2718 70.4637 12.9204 69.8961 13.7162C69.1541 14.7564 68.4446 15.9835 67.8899 16.8947C66.6864 18.8716 67.0769 17.95 62.7113 23.7994C66.6337 20.5218 66.4957 19.2241 68.1488 19.1387C69.3196 19.0783 69.6292 19.9132 69.9613 21.0375C70.3876 22.4812 68.7866 24.9475 67.9762 26.216C66.4785 28.5606 63.9692 31.3242 62.1935 33.466C60.7756 35.1762 58.7213 37.3204 57.3602 39.076C56.0267 40.7961 54.8015 43.539 53.2174 45.0313C47.3974 50.5142 38.4164 58.4171 33.8842 60.0491C26.9541 62.5445 10.3026 71.7906 10.4083 72.046C10.5733 72.4447 1.0006 50.3825 1.0006 50.4688Z" fill="white" stroke="black" stroke-width="0.999998" stroke-linecap="round" stroke-linejoin="round"/>
<path d="M62.1071 4.89778L52.5343 13.5368C49.7088 16.3463 46.7711 19.8292 44.1549 21.3827" fill="white" fill-opacity="0.166667"/>
<path d="M62.1071 4.89778L52.5343 13.5368C49.7088 16.3463 46.7711 19.8292 44.1549 21.3828" stroke="black" stroke-width="0.999998" stroke-linecap="round" stroke-linejoin="round"/>
<path d="M67.113 8.86798C64.1384 12.2118 61.6343 15.3204 57.8256 19.0813C55.5041 22.1767 51.6449 24.106 50.5417 26.475" fill="white" fill-opacity="0.166667"/>
<path d="M67.113 8.86798C64.1384 12.2118 61.6343 15.3204 57.8256 19.0813C55.5041 22.1767 51.6449 24.106 50.5417 26.475" stroke="black" stroke-width="0.999998" stroke-linecap="round" stroke-linejoin="round"/>
<path d="M62.9703 23.5405C58.7231 29.1303 57.1012 28.1584 53.1311 35.1922L62.9703 23.5405Z" fill="white" fill-opacity="0.166667"/>
<path d="M62.9703 23.5405C58.7231 29.1303 57.1012 28.1584 53.1311 35.1922" stroke="black" stroke-width="0.999998" stroke-linecap="round" stroke-linejoin="round"/>
<path d="M22.923 28.2011C28.8978 22.6806 34.9979 20.2955 41.1341 14.8233L22.923 28.2011Z" fill="white" fill-opacity="0.166667"/>
<path d="M22.923 28.2011C28.8978 22.6806 34.9979 20.2955 41.1341 14.8233" stroke="black" stroke-width="0.999998" stroke-linecap="round" stroke-linejoin="round"/>
</svg>
