<svg width="71" height="74" viewBox="0 0 71 74" fill="none" xmlns="http://www.w3.org/2000/svg">
<path d="M2.99594 60.0044C1.10469 56.3649 2.15236 53.1917 5.8657 51.45C9.90155 49.557 14.8425 47.2174 16.6214 46.1802C17.1631 45.8643 25.301 33.9255 30.7245 28.3835C31.4901 27.6011 31.7534 26.2766 32.5261 25.1068C33.1537 24.1567 34.3173 23.3657 34.7539 22.5912C36.2917 19.8635 37.7678 15.9272 39.287 13.1891C40.2701 11.4174 41.773 9.16678 42.8967 7.48077C43.8693 6.02151 45.5674 3.3116 46.7583 2.02424C48.0534 0.624184 50.6938 0.372412 51.1235 3.11555C51.3729 4.70775 49.2294 7.92333 48.3533 9.91523C47.5678 11.7012 46.4476 14.053 45.7509 15.8754C45.2856 17.0928 44.9432 18.5366 44.4197 19.9931C43.942 21.3225 43.2572 22.6624 43.3165 23.8504C43.3535 24.5935 43.5704 25.5738 44.1559 26.033C44.8468 26.5748 49.3021 22.2956 52.4667 20.9122C54.012 20.2367 55.5183 19.1118 58.4269 17.8062C59.5934 17.2826 60.9732 16.2722 62.1205 15.7075C63.2286 15.1622 66.0192 14.1232 67.2413 13.9447C68.8621 13.7079 70.5237 15.7595 69.8436 17.5544C69.6012 18.1941 65.8983 20.3046 64.2192 21.4999C61.9414 23.1212 58.6947 25.0347 56.664 26.9564C54.0959 29.3866 48.6207 31.1523 47.9335 32.4969C47.8254 32.7084 48.1391 33.0656 48.3533 33.1684C48.7419 33.355 49.3606 32.9026 49.7804 33.0006C50.862 33.2529 52.1771 34.1606 52.8864 35.0153C54.9396 37.4893 52.3394 39.5442 51.879 40.8076C51.7145 41.259 53.0833 42.0289 53.2222 43.4939C53.3517 44.8606 52.7483 46.3182 51.7951 47.1036C50.6282 48.0649 48.3984 48.461 47.4299 49.622C47.19 49.9095 47.2993 50.5595 47.0101 50.7972C43.6248 53.5801 40.9143 56.0898 38.2797 58.0167C35.6873 59.9126 30.8585 62.8419 29.4653 62.6337C28.6759 62.5158 23.9788 65.6717 19.1398 67.8384C13.935 70.169 7.6621 68.9837 5.0325 63.9234L2.99594 60.0044Z" fill="white" stroke="black" stroke-width="0.999998" stroke-linecap="round" stroke-linejoin="round"/>
<path d="M51.9629 41.1434C51.1219 39.9306 49.4534 39.4473 49.3606 38.7929L51.9629 41.1434Z" fill="white" fill-opacity="0.0608975"/>
<path d="M51.9629 41.1434C51.1219 39.9306 49.4534 39.4473 49.3606 38.7929" stroke="black" stroke-width="0.999998" stroke-linecap="round" stroke-linejoin="round"/>
<path d="M48.4373 48.6147C49.2113 47.9512 50.1216 47.4659 51.1039 47.193L51.1235 47.1876" fill="white" fill-opacity="0.0608975"/>
<path d="M48.4373 48.6147V48.6147C49.2113 47.9512 50.1216 47.4659 51.1039 47.193L51.1235 47.1876" stroke="black" stroke-width="0.999998" stroke-linecap="round" stroke-linejoin="round"/>
</svg>
