<svg width="70" height="70" viewBox="0 0 70 70" fill="none" xmlns="http://www.w3.org/2000/svg">
<path d="M55.1904 37.1875C55.1904 42.6569 53.0556 47.8038 49.1763 51.6812C45.2991 55.5604 40.1521 57.6953 34.6826 57.6953C29.2132 57.6953 24.0663 55.5604 20.1889 51.6812C16.3097 47.804 14.1748 42.6569 14.1748 37.1875C14.1748 31.7181 16.3097 26.5712 20.1889 22.6938C24.0663 18.8146 29.2132 16.6797 34.6826 16.6797C38.1413 16.6797 41.4979 17.5469 44.51 19.2052L36.5071 28.9844H68.13L60.2233 0L52.3766 9.58809C47.0755 6.17148 40.9972 4.375 34.6826 4.375C25.9168 4.375 17.6755 7.78764 11.4812 13.9861C5.28275 20.1804 1.87012 28.4216 1.87012 37.1875C1.87012 45.9534 5.28275 54.1946 11.4812 60.3889C17.6756 66.5874 25.9168 70 34.6826 70C43.4485 70 51.6898 66.5874 57.8841 60.3889C64.0825 54.1945 67.4951 45.9534 67.4951 37.1875V35.1367H55.1904V37.1875Z" fill="#87DE87"/>
</svg>
